<?xml version="1.0" encoding="UTF-8"?>
<svg xmlns="http://www.w3.org/2000/svg" viewBox="0 0 900 650">
  <!-- Background -->
  <rect width="900" height="650" fill="#f8f9fa" />
  
  <!-- Title -->
  <text x="450" y="40" font-family="Arial, sans-serif" font-size="24" font-weight="bold" text-anchor="middle" fill="#333333">Mutual TLS (mTLS) Authentication Process</text>
  
  <!-- Entities -->
  <rect x="100" y="80" width="140" height="500" rx="10" ry="10" fill="#e6f7ff" stroke="#1890ff" stroke-width="2" />
  <text x="170" y="110" font-family="Arial, sans-serif" font-size="16" font-weight="bold" text-anchor="middle" fill="#333333">Client</text>
  
  <rect x="660" y="80" width="140" height="500" rx="10" ry="10" fill="#f6ffed" stroke="#52c41a" stroke-width="2" />
  <text x="730" y="110" font-family="Arial, sans-serif" font-size="16" font-weight="bold" text-anchor="middle" fill="#333333">Server</text>
  
  <!-- Certificate Artifacts -->
  <rect x="30" y="130" width="120" height="60" rx="5" ry="5" fill="#fff" stroke="#1890ff" stroke-width="2" />
  <text x="90" y="160" font-family="Arial, sans-serif" font-size="12" font-weight="bold" text-anchor="middle" fill="#333333">Client Certificate</text>
  <text x="90" y="175" font-family="Arial, sans-serif" font-size="10" text-anchor="middle" fill="#666666">+ Private Key</text>
  
  <rect x="750" y="130" width="120" height="60" rx="5" ry="5" fill="#fff" stroke="#52c41a" stroke-width="2" />
  <text x="810" y="160" font-family="Arial, sans-serif" font-size="12" font-weight="bold" text-anchor="middle" fill="#333333">Server Certificate</text>
  <text x="810" y="175" font-family="Arial, sans-serif" font-size="10" text-anchor="middle" fill="#666666">+ Private Key</text>
  
  <rect x="750" y="200" width="120" height="60" rx="5" ry="5" fill="#fff" stroke="#52c41a" stroke-width="2" />
  <text x="810" y="225" font-family="Arial, sans-serif" font-size="12" font-weight="bold" text-anchor="middle" fill="#333333">Trusted CA</text>
  <text x="810" y="240" font-family="Arial, sans-serif" font-size="10" text-anchor="middle" fill="#666666">Certificate Store</text>
  
  <!-- Timeline -->
  <line x1="170" y1="140" x2="170" y2="580" stroke="#1890ff" stroke-width="2" stroke-dasharray="5,5" />
  <line x1="730" y1="140" x2="730" y2="580" stroke="#52c41a" stroke-width="2" stroke-dasharray="5,5" />
  
  <!-- Process Steps -->
  <!-- 1. Client Hello -->
  <line x1="170" y1="270" x2="730" y2="270" stroke="#333333" stroke-width="2" marker-end="url(#arrowhead)" />
  <rect x="320" y="245" width="260" height="30" rx="15" ry="15" fill="#fff" stroke="#333333" stroke-width="1" />
  <text x="450" y="265" font-family="Arial, sans-serif" font-size="12" text-anchor="middle" fill="#333333">1. Client Hello</text>
  
  <!-- 2. Server Hello + Certificate Request -->
  <line x1="730" y1="320" x2="170" y2="320" stroke="#333333" stroke-width="2" marker-end="url(#arrowhead)" />
  <rect x="290" y="295" width="320" height="30" rx="15" ry="15" fill="#fff" stroke="#333333" stroke-width="1" />
  <text x="450" y="315" font-family="Arial, sans-serif" font-size="12" text-anchor="middle" fill="#333333">2. Server Hello + Certificate Request</text>
  
  <!-- 3. Client Certificate + Key Exchange -->
  <line x1="170" y1="370" x2="730" y2="370" stroke="#333333" stroke-width="2" marker-end="url(#arrowhead)" />
  <rect x="290" y="345" width="320" height="30" rx="15" ry="15" fill="#fff" stroke="#333333" stroke-width="1" />
  <text x="450" y="365" font-family="Arial, sans-serif" font-size="12" text-anchor="middle" fill="#333333">3. Client Certificate + Key Exchange</text>
  
  <!-- 4. Certificate Verification -->
  <rect x="650" y="380" width="160" height="60" rx="5" ry="5" fill="#fffbe6" stroke="#faad14" stroke-width="2" />
  <text x="730" y="405" font-family="Arial, sans-serif" font-size="12" font-weight="bold" text-anchor="middle" fill="#333333">4. Verify Client</text>
  <text x="730" y="420" font-family="Arial, sans-serif" font-size="10" text-anchor="middle" fill="#666666">Certificate against</text>
  <text x="730" y="435" font-family="Arial, sans-serif" font-size="10" text-anchor="middle" fill="#666666">Trusted CA Store</text>
  
  <!-- 5. Server Finished -->
  <line x1="730" y1="470" x2="170" y2="470" stroke="#333333" stroke-width="2" marker-end="url(#arrowhead)" />
  <rect x="320" y="445" width="260" height="30" rx="15" ry="15" fill="#fff" stroke="#333333" stroke-width="1" />
  <text x="450" y="465" font-family="Arial, sans-serif" font-size="12" text-anchor="middle" fill="#333333">5. Server Finished (if validation OK)</text>
  
  <!-- 6. Client Finished -->
  <line x1="170" y1="520" x2="730" y2="520" stroke="#333333" stroke-width="2" marker-end="url(#arrowhead)" />
  <rect x="320" y="495" width="260" height="30" rx="15" ry="15" fill="#fff" stroke="#333333" stroke-width="1" />
  <text x="450" y="515" font-family="Arial, sans-serif" font-size="12" text-anchor="middle" fill="#333333">6. Client Finished</text>
  
  <!-- 7. Secured Connection -->
  <rect x="290" y="540" width="320" height="40" rx="5" ry="5" fill="#d9f7be" stroke="#52c41a" stroke-width="2" />
  <text x="450" y="565" font-family="Arial, sans-serif" font-size="14" font-weight="bold" text-anchor="middle" fill="#333333">7. Secure HTTPS Connection Established</text>
  
  <!-- Legend -->
  <rect x="30" y="600" width="840" height="40" rx="5" ry="5" fill="#fff" stroke="#d9d9d9" stroke-width="1" />
  <text x="50" y="625" font-family="Arial, sans-serif" font-size="12" font-weight="bold" fill="#333333">Key Benefits:</text>
  <text x="140" y="625" font-family="Arial, sans-serif" font-size="12" fill="#666666">• Strong Authentication   • No Password Management   • Cryptographically Secure   • Prevents MITM Attacks   • Identity Verification</text>
  
  <!-- Arrow Definitions -->
  <defs>
    <marker id="arrowhead" markerWidth="10" markerHeight="7" refX="9" refY="3.5" orient="auto">
      <polygon points="0 0, 10 3.5, 0 7" fill="#333333" />
    </marker>
  </defs>
</svg>