<svg 
	version="1.1" 
	id="Layer_1" 
	xmlns="http://www.w3.org/2000/svg" 
	xmlns:xlink="http://www.w3.org/1999/xlink" 
	x="0px" 
	y="0px"
	viewBox="0 0 55 55" 
	style="enable-background:new 0 0 55 55;" 
	xml:space="preserve"
	width="75px"
	height="75px"
>
<g id="_x35_">
	<path d="M51.95298,23.6389523c0.0109863-0.6779785,0.0063477-1.3771973-0.1535645-2.1130371
		c-0.0891113-0.3681641-0.2231445-0.7519531-0.4672852-1.1125488c-0.2348633-0.3630371-0.6269531-0.6757813-1.0197754-0.8254395
		c-0.7612305-0.2932129-1.4438477-0.2524414-2.0617676-0.2131348c-0.0466881-2.5039043-0.0476685-2.513876-0.1079102-6.0944824
		c-0.0200195-1.130127,0.0800781-2.3701172-0.0100098-3.6401367c-0.0500488-0.6298828-0.1201172-1.2800293-0.3100586-1.9499507
		c-0.1899414-0.6499023-0.5-1.3598633-1.1101074-1.9099121c-0.619873-0.5400391-1.3398438-0.7800293-2.0397949-0.9001465
		c-0.6901855-0.1098633-1.3601074-0.1098633-1.9899902-0.1098633c-5.0600586,0.0100098-10.2900391,0.0200195-15.6401348,0.0200195
		C21.6827183,4.8103395,16.4527378,4.830359,11.3926792,4.8503785C10.772562,4.8601441,10.1226597,4.8201051,9.402689,4.9402223
		C8.8816929,5.0146852,8.2837925,5.2344117,7.8096709,5.6174684C7.1485381,5.7370973,6.2667022,6.0159059,5.3794951,6.7358766
		C4.313333,7.5903687,3.4756868,9.1387081,3.1817415,11.0034542c-0.3164063,1.8449707-0.296875,3.9633789-0.2250977,6.2512207
		c0.1054688,4.5549316,0.0932617,10.0332031,0.2700195,16.083498c0.2917585,11.4897232,0.2161605,8.5667267,0.309082,11.9968262
		c0.0490723,0.8337402-0.0354004,1.6611328,0.237793,2.6962891c0.1398926,0.5004883,0.4545896,1.0651855,0.9545896,1.4211426
		c0.4938965,0.3596191,1.0495605,0.4934082,1.5388184,0.5539551c0.9995117,0.092041,1.7944341,0.0354004,2.6848149,0.0585938
		c13.9765625,0.1169434,26.6284161,0.2597656,35.8110352,0.0783691c1.1506348-0.0285645,2.2988281-0.0773926,3.362793-0.4338379
		c0.5302734-0.170166,1.0402832-0.4326172,1.4648438-0.7995605c0.4196777-0.3737793,0.729248-0.8625488,0.8737793-1.3640137
		c0.2629395-1.0131836,0.1635742-1.845459,0.1916504-2.6303711c-0.0019531-0.7839355-0.0195313-1.4997559-0.0483398-2.1428223
		c-0.0776367-1.6582031-0.204834-2.8232422-0.3095703-3.4460449c0.3745117-0.1201172,0.7434082-0.317627,1.0339355-0.6494141
		c0.6970215-0.8300781,0.7177734-1.7470703,0.7541504-2.5087891c0.0114746-0.7770996-0.0554199-1.5112305-0.0603027-2.1862793
		C51.9265938,23.223608,51.9069405,25.4147549,51.95298,23.6389523z M11.402689,6.2402711
		c9.3892651,0,22.6992855-0.0360527,31.2800274-0.0700684c1.2399902-0.0300293,2.4399414,0.0400391,3.1098633,0.6401367
		c0.6699219,0.5898438,0.9001465,1.7998042,0.9799805,2.9299312c0.0952072,1.2258291,0.0000801,2.4382648,0.0356445,3.7897949
		c-1.9912109-0.3198242-10.0263672-0.559082-19.6506329-0.559082c-8.9772949,0-16.5756836,0.208252-19.173584,0.4956055
		c-0.0236816-1.1337891-0.0476074-2.2785645-0.0712891-3.4362793C7.882669,8.850378,7.9026885,7.620398,8.4527378,6.9202027
		C8.9527378,6.2302613,10.1126499,6.2302613,11.402689,6.2402711z M7.427835,39.6824112
		c-0.4624023,0.1630859-1.2653809,0.940918-2.0175781,2.0029297c-0.2084961,0.2944336-0.3916016,0.5839844-0.5534668,0.8623047
		c-0.0488281-1.4282227-0.0966797-2.8317871-0.1437988-4.2128906c0.4169922,0.0004883,1.1853027-0.4589844,1.9118652-1.182373
		c0.2773438-0.2766113,0.5117188-0.5583496,0.7026367-0.826416C7.361917,37.4758682,7.3951201,38.5891495,7.427835,39.6824112z
		 M3.9647005,17.211462c-0.0007324-0.0144043-0.0012207-0.0275879-0.0021973-0.041748
		c0.3908689,0.0566406,1.156738-0.3566895,1.8720701-1.0441895c0.3654785-0.3513184,0.6550293-0.7172852,0.8515625-1.0458984
		c0.0725446,2.673914,0.0459509,1.7636375,0.1210938,4.1699219c-0.7745061,0.2999706-1.9572515,1.2315578-2.6657715,2.2038574
		C4.0897002,19.9746456,4.033792,18.5537472,3.9647005,17.211462z M6.6578155,14.0359249
		c-0.3933105-0.0161133-1.1140137,0.3894043-1.8122559,1.0605469c-0.4157715,0.3999023-0.7370605,0.8115234-0.9313962,1.1640625
		c-0.0498047-0.9433594-0.0791016-1.8435059-0.076416-2.6945801c0.0095215,0.0039063,0.0163574,0.0163574,0.0263672,0.0185547
		c0.196533,0.0466309,0.4147947-0.1374512,0.7172849-0.3508301c0.2961426-0.2243652,0.7226563-0.5107422,1.2321777-0.9643555
		c0.3034668-0.2741699,0.5622559-0.5529785,0.7758789-0.8188477C6.6124053,12.3176632,6.6346221,13.1828976,6.6578155,14.0359249z
		 M4.1814971,22.617712c0.4606934-0.1008301,1.189209-0.5393066,1.9135742-1.1918945
		c0.2897949-0.2609863,0.541748-0.5253906,0.7553711-0.7792969c0.043457,1.4050293,0.0856934,2.7775879,0.1271973,4.1340332
		c-0.7294698,0.3959351-1.827374,1.3169212-2.6533203,2.3867188C4.275003,25.5950069,4.2293487,24.0749874,4.1814971,22.617712z
		 M6.2586455,27.138464c0.2866211-0.2810059,0.5439453-0.5634766,0.765625-0.8339844
		c0.0358887,1.1716309,0.0708008,2.3254395,0.1052246,3.456543c-0.9051933,0.4892807-2.0100479,1.5850563-2.6289063,2.4902363
		c-0.0488281-1.2580585-0.0925293-2.4917011-0.1318359-3.6916523C4.8702178,28.3284054,5.5679717,27.8157101,6.2586455,27.138464z
		 M7.2869658,34.98246c-0.4289551,0.1276855-1.0551758,0.5471191-1.6691895,1.1586914
		c-0.4086914,0.4069824-0.7285156,0.8186035-0.9394531,1.177002c-0.0439453-1.2861328-0.0874023-2.5568848-0.1296387-3.7954102
		c0.4819336-0.171875,1.2219238-0.7060547,1.9587402-1.456543c0.25-0.2543964,0.4731445-0.508791,0.6689453-0.7539082
		C7.2142119,32.5637589,7.2510772,33.786171,7.2869658,34.98246z M5.7464385,7.1531129
		C6.2774444,6.6579957,6.8243194,6.3591676,7.31846,6.1536012C6.8567901,6.7754273,6.6890655,7.488318,6.6026397,8.1301632
		c-0.0800781,0.670166-0.0700684,1.3200684-0.0500488,1.920166c0.0004883,0.0200195,0.0012207,0.0395508,0.001709,0.0598145
		c-0.4475098,0.1435547-1.0776367,0.5402832-1.6975098,1.1003418c-0.3977051,0.3540039-0.7770996,0.7814941-0.9958494,1.2102051
		c0.0224609-0.4482422,0.0561523-0.8837891,0.1101074-1.3010254C4.1741729,9.3796749,4.8565459,7.970984,5.7464385,7.1531129z
		 M5.1348662,47.6277237c-0.1828613-0.6154785-0.1494141-1.5058594-0.189209-2.3393555
		c-0.010498-0.3232422-0.020752-0.640625-0.0310059-0.9619141c0.4597168-0.3308105,1.072998-0.9873047,1.6601563-1.8164063
		c0.3759766-0.5310059,0.6791992-1.046875,0.8930664-1.4938965c0.0083008,0.2756348,0.0168457,0.5625,0.0249023,0.8342285
		c0.0598145,0.869873-0.0302734,1.7197266,0.2897949,2.6899414c0.1184082,0.347168,0.3520513,0.6931152,0.6550298,0.9475098
		c-0.8789291,0.4688644-2.0812879,1.9951363-2.3701177,3.0256348C5.565042,48.3826065,5.2825713,48.1335831,5.1348662,47.6277237z
		 M7.2806182,48.6294327c0.2719727-0.2446289,0.5598145-0.5524902,0.837647-0.9128418
		c0.5483398-0.7109375,0.8984375-1.4101563,0.9702148-1.8613281c0.3535156,0.1318359,0.7109375,0.1818848,1.0441895,0.2050781
		c1.6398926,0.0200195,3.0900879-0.0300293,4.5-0.0300293c0.0449219-0.0007324,0.0854492-0.0014648,0.130127-0.0021973
		c-0.3669434,0.2324219-0.7871094,0.5805664-1.197998,1.017334c-0.5576172,0.5932617-0.9604492,1.1984863-1.1235352,1.6408691
		c-1.151123-0.0161133-2.3088379-0.0322266-3.4799805-0.0483398C8.4087925,48.6257706,7.8233428,48.637001,7.2806182,48.6294327z
		 M25.9786167,45.7937393c-0.7819748,0.4308014-1.8674622,1.8020973-2.2514648,3.0490723
		c-1.3115234-0.0183105-2.6474609-0.0368652-4.0019531-0.0554199c0.3083496-0.2744141,0.6401367-0.6286621,0.9587402-1.0378418
		c0.5288086-0.6789551,0.9025879-1.3554688,1.0466309-1.838623C22.401638,45.9009094,24.6855602,45.8492432,25.9786167,45.7937393z
		 M19.5579624,46.8725967c-0.5568848,0.7150879-0.9436035,1.4172363-1.0749512,1.8974609
		c-1.515625-0.0209961-3.0522461-0.0422363-4.6123047-0.0639648c0.2397461-0.1938477,0.4885254-0.4221191,0.7338867-0.6831055
		c0.7416992-0.7888184,1.2050781-1.5947266,1.1967773-2.0134277c1.6931152-0.0297852,3.2419434-0.0559082,4.6079102-0.0776367
		C20.1334019,46.1919327,19.8428745,46.5068741,19.5579624,46.8725967z M31.0767612,48.9448624
		c0.1152344-0.3054199,0.215332-0.661377,0.2839355-1.0534668c0.1542969-0.8835449,0.1113281-1.6699219-0.0812988-2.0405273
		c1.3475094,0.0431786,2.4912319,0.0649223,3.3593731,0.0825195c-0.3349533,0.7407417-0.2961159,2.2471695,0.0966797,3.0620117
		C33.5452652,48.9790421,32.3272476,48.9621964,31.0767612,48.9448624z M43.8082047,48.1401749
		c0.1147461,0.3723145,0.255127,0.7043457,0.4033203,0.9870605c-1.3198242-0.0185547-2.7097168-0.0375977-4.1625977-0.0578613
		c0.0705566-0.3647461,0.0761719-0.8522949,0.0161133-1.3776855c-0.0830078-0.7055664-0.2670898-1.3129883-0.5012207-1.6289063
		c1.2469864,0.0885849,2.772522,0.2695618,4.0266113,0.2324219C43.5091324,46.7131729,43.5784683,47.3950577,43.8082047,48.1401749z
		 M38.6475601,47.8564835c0.0539551,0.46875,0.177002,0.8793945,0.328125,1.197998
		c-1.0837402-0.0151367-2.2016602-0.0307617-3.3486328-0.0466309c0.3459358-0.8019867,0.2784615-2.285656-0.1425781-3.057373
		c0.560791,0.0114746,1.1484375,0.0244141,1.7680664,0.0397949c0.5322266,0.0090332,1.0947266,0.0197754,1.6682129,0.0361328
		C38.689064,46.3513565,38.5528336,47.0491104,38.6475601,47.8564835z M47.8543472,48.8430557
		c-0.7316895,0.2202148-1.560791,0.2768555-2.4428711,0.2880859c-0.0053673-0.9702301-0.4444237-2.2442284-0.9711914-2.8942871
		c0.4121094-0.0480957,0.8327637-0.1257324,1.2624512-0.246582c0.3659668-0.1135254,0.7207031-0.2841797,1.0583496-0.5085449
		c0.0583496,0.472168,0.2565918,1.0371094,0.550293,1.5698242c0.3276367,0.5952148,0.661377,1.0554199,0.9331055,1.3840332
		c0.060791,0.0720215,0.1188965,0.1357422,0.1755371,0.1943359C48.2425308,48.7126846,48.0564957,48.7876358,47.8543472,48.8430557z
		 M49.7037125,47.3042374c-0.0986328,0.3061523-0.2890625,0.567627-0.5241699,0.7990723
		c-0.001709-0.0187988,0-0.0334473-0.0024414-0.0527344c-0.0568848-0.4873047-0.2924805-1.1008301-0.6113281-1.6796875
		c-0.3188477-0.5803223-0.625-1.0383301-0.8713379-1.3757324c-0.0622559-0.0834961-0.1223145-0.1599121-0.1801758-0.2275391
		c0.1191406-0.1889648,0.2207031-0.3825684,0.2883301-0.5773926c0.2351074-0.7441406,0.2312012-1.4624023,0.2231445-2.1479492
		c0.1018066,0.1499023,0.208252,0.3056641,0.3186035,0.4799805c0.5393066,0.8083496,1.1665039,1.5300293,1.5341797,1.3554688
		c0.0639648-0.029541,0.1103516-0.095459,0.1472168-0.177002c-0.0129395,0.3811035-0.0290527,0.7780762-0.0498047,1.1987305
		C49.9166031,45.6628799,49.9437027,46.5578995,49.7037125,47.3042374z M50.0521011,42.7788467
		c-0.0012207,0.0500488-0.003418,0.107666-0.0046387,0.1586914c-0.0732422-0.3588867-0.2368164-0.7824707-0.5266113-1.2231445
		c-0.3447266-0.5114746-0.8330078-0.8935547-1.2536621-1.0307617c-0.0825195-0.0280762-0.15625-0.0412598-0.2287598-0.0532227
		c0.0065918-0.3803711,0.0131836-0.7617188,0.0214844-1.1491699c0.260498,0.0014648,0.5117188,0.0029297,0.7736816,0.0043945
		c0.3037109,0.0192871,0.7741699,0.0187988,1.2568359-0.0993652C50.0752945,40.0266495,50.0840836,41.1797256,50.0521011,42.7788467
		z M50.2715836,37.7248917c-0.1362305,0.1357422-0.2988281,0.2404785-0.5471191,0.291748
		c-0.1169434,0.0317383-0.2636719,0.0285645-0.3933105,0.0505371l-0.5305176-0.0009766
		c-4.9346237-0.0042648-2.9534836-0.005909-12.0734863,0.0100098c-2.5856934,0.0249023-4.9609356,0.3818359-6.9653301-0.1765137
		c-0.496582-0.1271973-0.9365234-0.3381348-1.3183594-0.5981445c-0.3937988-0.2587891-0.6369629-0.5917969-1.0144043-1.0302734
		c-1.2404346-1.443779-2.7007294-2.706337-3.7983398-4.213623c-0.4921875-0.6796894-0.8630371-1.3232441-0.9765625-1.9848652
		c-0.2421875-1.3430176,0.4755859-2.510498,1.0356445-3.3547363c1.2387695-1.689209,2.0393066-2.5976563,1.9394531-2.6745605
		c-0.0576172-0.0412598-0.9619141,0.6967773-2.3845215,2.342041c-0.338623,0.4277344-0.7036133,0.9260254-0.9975586,1.5532227
		c-0.291748,0.6201172-0.4946289,1.4074707-0.3823242,2.251709c0.1008301,0.8483887,0.5375977,1.6611328,1.0205078,2.3855
		c1.0938168,1.6391068,2.4990005,2.9214897,3.6982422,4.4008789c0.2895508,0.3537598,0.6784668,0.9003906,1.1894531,1.2512207
		c0.4992676,0.3623047,1.0664063,0.6396484,1.6523438,0.8059082c2.3583984,0.6975098,4.855711,0.3288574,7.2858868,0.3569336
		c9.5227127,0.0837898,7.1077347,0.0653534,10.3088379,0.0839844c-0.0043945,0.6757813-0.0075684,1.3496094-0.0075684,2.0053711
		c0.0200195,0.8999023,0.0900879,1.7399902-0.119873,2.3999023c-0.1601563,0.6201172-0.8000488,1.0100098-1.4699707,1.2402344
		c-1.380127,0.4399414-2.8901367,0.3398438-4.2600098,0.2797852c-0.6899414-0.0400391-1.3701172-0.0998535-2.0300293-0.1098633
		c-1.3738022,0-7.6142445,0.1100845-9.6701641,0.2099609c-2.1273708,0.0819168-2.0854149,0.1997261,0,0.2800293
		c0.3398438,0.0163574,0.7524414,0.032959,1.1972656,0.0490723c-0.2856445,0.3210449-0.5620117,0.9980469-0.704834,1.8164063
		c-0.0822754,0.4716797-0.1057129,0.9133301-0.0822754,1.2822266c-1.5458984-0.0214844-3.1323242-0.043457-4.7565918-0.065918
		c0.1813965-0.2214355,0.3662109-0.4697266,0.5471191-0.7382813c0.7055664-1.0527344,1.1098633-2.0429688,0.8891602-2.3549805
		c0.8623047-0.0380859,1.3303223-0.083252,1.3303223-0.1286621c0-0.0500488-0.5400391-0.0998535-1.5800781-0.1499023
		c-2.2816429-0.0886917-4.4470444-0.1280022-4.548584-0.1306152c-0.0141602-0.0297852-0.0249023-0.0637207-0.0480957-0.0837402
		c-0.1054688-0.0905762-0.2963867-0.0549316-0.5344238,0.0722656c-1.8447266-0.0361328-4.0234375-0.0727539-6.5388184-0.1179199
		c-1.380127-0.0300293-2.920166-0.0300293-4.4399414-0.0800781c-0.7399902-0.0498047-1.3100586-0.2998047-1.5-0.9399414
		c-0.2199707-0.6298828-0.1601563-1.5200195-0.1901855-2.3999023c-0.1708727-9.2354736-0.356905-20.701046-0.5092778-27.9074726
		c2.6054692,0.2871094,10.1962891,0.4951172,19.1643066,0.4951172c9.6354961,0,17.6789532-0.2399902,19.6584454-0.5605469
		c0.1067162,4.1914024,0.1109009,4.2319412,0.1411133,5.6452637c-0.1855469,0.0097656-0.3728027,0.0153809-0.5722656,0.0090332
		c-4.3728981,0.0287228-2.2326546,0.0099316-9.6774902,0.0874023c-1.9152832-0.032959-3.6936035,0.026123-5.2211895,0.3447266
		c-1.5305176,0.3022461-2.8032227,0.8703613-3.6899414,1.5488281c-0.8796387,0.6904297-1.3786621,1.376709-1.7192383,1.8261719
		c-0.3300781,0.4606934-0.4841309,0.7106934-0.4477539,0.7446289c0.0356445,0.0332031,0.269043-0.161377,0.6657715-0.5568848
		c0.4035645-0.3837891,0.9685059-0.9968262,1.8220215-1.5605469c0.8579102-0.5517578,2.0517578-1.003418,3.5095215-1.2167969
		c1.4589825-0.2282715,3.1503887-0.2182617,5.043211-0.121582c3.7390137,0.0605469,8.190918,0.1328125,13.1342773,0.2131348
		c0.715332,0.2314453,0.8459473,1.5507813,0.786377,2.8054199c-0.0117188,0.329834-0.0236816,0.661377-0.0356445,0.9946289
		c-0.0132484,0.421299,0.0427666,8.9427891,0.0456543,9.3920918c0.0065918,0.7617188,0.0700684,1.4709473,0.0585938,2.1496582
		C50.6514664,36.8071671,50.5384293,37.4436417,50.2715836,37.7248917z"/>
	<path d="M30.1329136,29.65238l0.1970215-0.2211914c2.1176739-2.3793945,3.9802227-4.2128906,3.7333965-4.5310059
		c-0.2297363-0.3095703-2.5781231,1.0900879-4.7963848,3.5791016l-0.2050781,0.232666
		c-0.1320801,0.1474609-0.2644043,0.302002-0.3452148,0.4694824c-0.1708984,0.3273926-0.1540527,0.7299805,0.0319824,1.03125
		c0.0864258,0.1494141,0.2272949,0.2976074,0.3513184,0.401123l0.2519531,0.2092285
		c0.1459961,0.1179199,0.2888184,0.2331543,0.4282227,0.3457031c0.5610352,0.4462891,1.0786133,0.8322773,1.5251465,1.1394062
		c1.944376,1.3371544,2.1696033,0.9348259,0.657959-0.7653828c-0.3537598-0.3972168-0.7890625-0.8503418-1.2858887-1.3354492
		c-0.125-0.1203613-0.2531738-0.2438965-0.3840332-0.369873l-0.1679688-0.1601563
		c-0.0180664-0.0197754-0.0043945-0.0114746-0.0073242-0.0175781c0.0021973-0.005127,0.0109863-0.0070801,0.0109863-0.0070801
		L30.1329136,29.65238z"/>
	<path d="M38.0799332,25.0359249c-0.3874512-0.0893555-1.3037109,2.4680176-2.223877,5.6640625
		c-0.9157715,3.1972675-1.496582,5.850832-1.1206055,5.9809589c0.3686523,0.128418,1.5644531-2.3486328,2.4921875-5.5871601
		C38.159523,27.8564816,38.4605484,25.122839,38.0799332,25.0359249z"/>
	<path d="M46.0323257,29.1011105l-0.4040527-0.2910156c-0.7746544-0.53722-0.5635872-0.3947659-1.0393066-0.7036133
		c-0.5065918-0.3232422-0.9753418-0.598877-1.3828125-0.8149414c-1.7592316-0.9315434-2.0617638-0.5938683-0.6044922,0.8081055
		c0.3376465,0.3249512,0.7558594,0.6931152,1.234375,1.0849609c0.1203613,0.0969238,0.2436523,0.1962891,0.369873,0.2978516
		c0.0449219,0.0368652,0.1689453,0.1308594,0.151123,0.1213379c0,0-0.0097656-0.0007324-0.0146484-0.0012207
		c-0.0109863,0.0183105,0.0007324-0.019043-0.0390625,0.0478516c-1.3598633,2.208252-2.954834,3.8637714-2.6931152,4.1638203
		c0.2265625,0.2995605,2.3381348-0.8798828,3.9499512-3.4853535c0.1687012-0.2871094,0.3356934-0.5708008,0.5-0.8503418
		l0.1252441-0.21875C46.2195816,29.1890011,46.0772476,29.1548214,46.0323257,29.1011105z"/>
	<path d="M17.68223,18.6487179c-3.9633789,0-7.1762695,0.3195801-7.1762695,0.713623s3.2128906,0.7133789,7.1762695,0.7133789
		s7.1762695-0.3193359,7.1762695-0.7133789S21.6456089,18.6487179,17.68223,18.6487179z"/>
	<ellipse cx="16.2886753" cy="24.4577999" rx="4.25" ry="0.713623"/>
	<path d="M15.1043491,31.1404171c1.6931152,0,3.0654297-0.3195801,3.0654297-0.713623s-1.3723145-0.713623-3.0654297-0.713623
		s-3.0656738,0.3195801-3.0656738,0.713623S13.4112339,31.1404171,15.1043491,31.1404171z"/>
	<path d="M11.7601109,34.7944717c0,0.394043,1.9338379,0.7133789,4.3195801,0.7133789s4.3198242-0.3193359,4.3198242-0.7133789
		c0-0.3942871-1.934082-0.713623-4.3198242-0.713623S11.7601109,34.4001846,11.7601109,34.7944717z"/>
	<ellipse cx="17.1248569" cy="39.0163956" rx="5.9221191" ry="0.713623"/>
	<path d="M11.348978,11.2551632c0.3706055,0.4191895,0.9104004,0.6564941,1.394043,0.5966797
		c0.4902344-0.0568848,0.7502441-0.3647461,0.833252-0.5537109c0.0820313-0.208252,0.0703125-0.3359375-0.0080566-0.3945313
		c-0.1494141-0.1396484-0.5600586,0.1132813-0.8056641-0.060791c-0.1142578-0.0632324-0.2573242-0.1916504-0.3740234-0.3930664
		c-0.1179199-0.2019043-0.1071777-0.4438477-0.0795898-0.3981934c-0.015625-0.0087891,0.0505371-0.0437012,0.1425781-0.097168
		c-0.0053711-0.0151367,0.0693359-0.0339355,0.171875-0.0136719c0.208252,0.0397949,0.4296875,0.1713867,0.5581055,0.2854004
		c0.2819824,0.190918,0.2390137,0.5375977,0.3867188,0.6774902c0.0705566,0.0549316,0.2209473,0.0476074,0.3823242-0.1330566
		c0.1674805-0.1694336,0.2780762-0.5891113,0.1262207-1.0100098c-0.1486816-0.4121094-0.4680176-0.8071289-0.9987793-1.0537109
		c-0.2636719-0.1142578-0.6240234-0.2060547-1.0424805-0.0871582c-0.3007813,0.1008301-0.670166,0.2561035-0.9213867,0.651123
		c-0.2568359,0.3754883-0.2800293,0.8447266-0.1899414,1.1657715C10.9993687,10.7815304,11.1695347,11.0359249,11.348978,11.2551632
		z"/>
	<path d="M14.9771519,11.2551632c0.3706055,0.4191895,0.9104004,0.6564941,1.394043,0.5966797
		c0.4902344-0.0568848,0.75-0.3647461,0.833252-0.5537109c0.0820313-0.208252,0.0700684-0.3359375-0.0080566-0.3945313
		c-0.1494141-0.1396484-0.5600586,0.1132813-0.8056641-0.060791c-0.1142578-0.0632324-0.2575684-0.1916504-0.3740234-0.3930664
		c-0.1179199-0.2019043-0.1071777-0.4438477-0.079834-0.3981934c-0.0153809-0.0087891,0.0505371-0.0437012,0.1428223-0.097168
		c-0.0053711-0.0151367,0.0690918-0.0339355,0.171875-0.0136719c0.2080078,0.0397949,0.4296875,0.1713867,0.5581055,0.2854004
		c0.2819824,0.190918,0.2390137,0.5375977,0.3867188,0.6774902c0.0705566,0.0549316,0.2209473,0.0476074,0.3823242-0.1330566
		c0.1674805-0.1694336,0.2780762-0.5891113,0.1262207-1.0100098c-0.1486816-0.4121094-0.4680176-0.8071289-0.9987793-1.0537109
		c-0.2636719-0.1142578-0.6240234-0.2060547-1.0427246-0.0871582c-0.3005371,0.1008301-0.6699219,0.2561035-0.9211426,0.651123
		c-0.2568359,0.3754883-0.2800293,0.8447266-0.1899414,1.1657715
		C14.6275425,10.7815304,14.7977085,11.0359249,14.9771519,11.2551632z"/>
	<path d="M18.6053257,11.2551632c0.3706055,0.4191895,0.9101563,0.6564941,1.394043,0.5966797
		c0.4902344-0.0568848,0.75-0.3647461,0.833252-0.5537109c0.0820313-0.208252,0.0700684-0.3359375-0.0083008-0.3945313
		c-0.1491699-0.1396484-0.5598145,0.1132813-0.8054199-0.060791c-0.114502-0.0632324-0.2575684-0.1916504-0.3742676-0.3930664
		c-0.1179199-0.2019043-0.1069336-0.4438477-0.0795898-0.3981934c-0.015625-0.0087891,0.0505371-0.0437012,0.1428223-0.097168
		c-0.0056152-0.0151367,0.0690918-0.0339355,0.171875-0.0136719c0.2080078,0.0397949,0.4296875,0.1713867,0.5581055,0.2854004
		c0.2819824,0.190918,0.2390137,0.5375977,0.3864746,0.6774902c0.0708008,0.0549316,0.2211914,0.0476074,0.3823242-0.1330566
		c0.1677246-0.1694336,0.2783203-0.5891113,0.1264648-1.0100098c-0.1486816-0.4121094-0.4680176-0.8071289-0.9987793-1.0537109
		c-0.2636719-0.1142578-0.6240234-0.2060547-1.0427246-0.0871582c-0.3005371,0.1008301-0.670166,0.2561035-0.9211426,0.651123
		c-0.2568359,0.3754883-0.2800293,0.8447266-0.1899414,1.1657715
		C18.2557163,10.7815304,18.4258823,11.0359249,18.6053257,11.2551632z"/>
</g>
</svg>
